<svg id="Calque_1" data-name="Calque 1" xmlns="http://www.w3.org/2000/svg" viewBox="0 0 60 60"><defs><style>.cls-1{fill:#2585f4;}</style></defs><title>Plan de travail 1</title><rect class="cls-1" x="29" width="2" height="4"/><rect class="cls-1" x="15" y="3.75" width="2" height="4" transform="translate(-0.73 8.77) rotate(-30)"/><rect class="cls-1" x="4.75" y="14" width="2" height="4" transform="translate(-10.98 12.98) rotate(-60)"/><rect class="cls-1" y="29" width="4" height="2"/><rect class="cls-1" x="3.75" y="43" width="4" height="2" transform="translate(-21.24 8.77) rotate(-30.01)"/><rect class="cls-1" x="14" y="53.25" width="4" height="2" transform="translate(-38.98 40.99) rotate(-60.01)"/><rect class="cls-1" x="29" y="56" width="2" height="4"/><rect class="cls-1" x="43" y="52.25" width="2" height="4" transform="translate(-21.23 29.27) rotate(-30)"/><rect class="cls-1" x="53.25" y="42" width="2" height="4" transform="translate(-10.98 68.98) rotate(-60.01)"/><rect class="cls-1" x="56" y="29" width="4" height="2"/><rect class="cls-1" x="52.25" y="15" width="4" height="2" transform="translate(-0.73 29.26) rotate(-29.99)"/><rect class="cls-1" x="42" y="4.75" width="4" height="2" transform="translate(17.03 40.99) rotate(-60.02)"/><path class="cls-1" d="M42.71,41.29,33.43,32A4,4,0,0,0,34,30a4,4,0,0,0-3-3.86V14H29V26.14A4,4,0,0,0,26.14,29H21v2h5.14A4,4,0,0,0,30,34a4,4,0,0,0,2-.57l9.27,9.28ZM28,30a2,2,0,1,1,2,2A2,2,0,0,1,28,30Z"/></svg>