<svg id="Calque_1" data-name="Calque 1" xmlns="http://www.w3.org/2000/svg" viewBox="0 0 60 60"><title>Plan de travail 1</title><path d="M30,1.75a28,28,0,1,0,28,28A28,28,0,0,0,30,1.75Zm0,53a25,25,0,1,1,25-25A25,25,0,0,1,30,54.75Z"/><path d="M21.17,19.85A1,1,0,1,0,23,19.07a6.25,6.25,0,0,0-12,2.44,6.32,6.32,0,0,0,.49,2.43,1,1,0,0,0,.92.61,1.09,1.09,0,0,0,.39-.08,1,1,0,0,0,.53-1.31,4.26,4.26,0,1,1,7.84-3.31Z"/><path d="M36.25,10.07A6.26,6.26,0,0,0,30,16.32a6.4,6.4,0,0,0,.49,2.44,1,1,0,0,0,.92.61,1.09,1.09,0,0,0,.39-.08A1,1,0,0,0,32.33,18a4.25,4.25,0,0,1,7.84-3.3A1,1,0,0,0,42,13.9,6.22,6.22,0,0,0,36.25,10.07Z"/><path d="M38.39,24.75a1,1,0,0,0-1.31.52,11.14,11.14,0,0,1-6.86,6.13,11.76,11.76,0,0,1-10-1.58,1,1,0,1,0-1.06,1.7A14.87,14.87,0,0,0,27,33.9a12.69,12.69,0,0,0,3.82-.58,13.16,13.16,0,0,0,8.1-7.25A1,1,0,0,0,38.39,24.75Z"/></svg>