<?xml version="1.0" encoding="utf-8"?>
<!-- Generator: Adobe Illustrator 19.2.0, SVG Export Plug-In . SVG Version: 6.00 Build 0)  -->
<svg version="1.1" id="icones" xmlns="http://www.w3.org/2000/svg" xmlns:xlink="http://www.w3.org/1999/xlink" x="0px" y="0px"
	 viewBox="0 0 47.3 47.3" style="enable-background:new 0 0 47.3 47.3;fill:#2585f4;" xml:space="preserve">
<title>1</title>
<g>
	<circle cx="30.5" cy="15.9" r="7.4"/>
	<path d="M44.2,36.6c-0.1-1.6-0.2-3.2-0.5-4.8c-0.3-1.9-0.8-4.8-2.5-6c-1-0.6-2.2-1.1-3.4-1.4L37.1,24c-3.8,3.1-9.4,3.1-13.2,0
		l-0.8,0.3c-1.2,0.3-2.3,0.8-3.3,1.4c-1.7,1.3-2.1,4.1-2.5,6c-0.3,1.6-0.5,3.2-0.5,4.8c0,1.2,0.6,1.4,1.6,1.8c1.3,0.5,2.6,0.8,4,1.1
		c2.7,0.6,5.4,0.9,8.1,1c2.7-0.1,5.4-0.4,8.1-1c1.4-0.3,2.7-0.6,4-1.1C43.6,38,44.3,37.8,44.2,36.6z"/>
	<path d="M23.1,10.3c-1.3-2.1-3.6-3.5-6.3-3.5c-4.1,0-7.4,3.3-7.4,7.4c0,4.1,3.3,7.4,7.4,7.4c2,0,3.8-0.8,5.2-2.1
		c-0.6-1.1-0.9-2.4-0.9-3.8C21.1,13.6,21.8,11.8,23.1,10.3z"/>
	<path d="M23.4,17.7c0.5-1,0.9-2.2,0.9-3.4c0-0.6-0.1-1.2-0.2-1.8c-0.6,1-0.9,2.1-0.9,3.3C23.1,16.4,23.2,17.1,23.4,17.7z"/>
	<path d="M14.8,36.4c0.1-1.7,0.2-3.4,0.5-5l0-0.2c0.4-2.1,0.9-5,2.8-6.4l0.1-0.1c0.1-0.1,0.2-0.1,0.3-0.2c-2.9,0.5-5.9-0.2-8.3-2.2
		l-0.8,0.3c-1.2,0.3-2.3,0.8-3.4,1.4c-1.7,1.3-2.1,4.1-2.5,6c-0.3,1.6-0.5,3.2-0.5,4.8c0,1.2,0.6,1.4,1.6,1.8c1.3,0.5,2.6,0.8,4,1.1
		c2.4,0.6,4.9,0.9,7.4,1C15.4,38.4,14.8,37.8,14.8,36.4z"/>
	<path d="M22.4,25.1c-1.1,0.3-2.1,0.7-3.1,1.3c-1.3,1-1.7,3.4-2,5.1l0,0.2c-0.3,1.6-0.5,3.1-0.5,4.7c0,0.5,0,0.5,0.9,0.8
		c1.3,0.5,2.6,0.8,3.9,1.1c0.1,0,0.1,0,0.2,0c1-0.2,2-0.3,3.1-0.6c1.4-0.3,2.7-0.6,4-1.1c1.1-0.4,1.7-0.6,1.7-1.8
		c-0.1-1.6-0.2-3.2-0.5-4.8c-0.2-0.9-0.3-1.9-0.6-2.9c-2.3,0-4.7-0.7-6.6-2.2L22.4,25.1z"/>
</g>
</svg>
