<svg id="icones" xmlns="http://www.w3.org/2000/svg" viewBox="0 0 32 32"><defs><style>.cls-1{fill:#fff;}</style></defs><title>Plan de travail 1</title><path d="M22.83,1H9.17A3.15,3.15,0,0,0,6,4.09V27.91A3.15,3.15,0,0,0,9.17,31H22.83A3.15,3.15,0,0,0,26,27.91V4.09A3.15,3.15,0,0,0,22.83,1ZM21.65,23.82H10.35a1.17,1.17,0,0,1-1.18-1.15V5.44a1.17,1.17,0,0,1,1.18-1.16h11.3a1.17,1.17,0,0,1,1.18,1.16V22.67A1.17,1.17,0,0,1,21.65,23.82Z"/><rect class="cls-1" x="12" y="27" width="8" height="2" rx="1" ry="1"/></svg>