<svg id="Calque_1" data-name="Calque 1" xmlns="http://www.w3.org/2000/svg" viewBox="0 0 30 30"><title>Plan de travail 1</title><path d="M15,23s8-6,8-13.59A8,8,0,0,0,7,9.38C7,17,15,23,15,23ZM9.84,9.38a5.16,5.16,0,1,1,10.32,0,5.16,5.16,0,0,1-10.32,0ZM30,23c0,3.7-7.55,5.62-15,5.62S0,26.67,0,23c0-2.06,2.44-3.75,6.84-4.78A.94.94,0,0,1,7.27,20c-3.71.84-5.39,2.1-5.39,2.95,0,1.55,5.1,3.75,13.12,3.75S28.12,24.52,28.12,23c0-.85-1.68-2.11-5.34-2.95a.94.94,0,0,1,.42-1.83C27.56,19.22,30,20.91,30,23Z"/></svg>