<svg id="Calque_1" data-name="Calque 1" xmlns="http://www.w3.org/2000/svg" viewBox="0 0 148.38 43.78"><defs><style>.cls-1{fill:#fff;}</style></defs><title>Plan de travail 1</title><path class="cls-1" d="M112.44,5.88a.7.7,0,0,0,1,.15l2.12-1.55a.7.7,0,1,0-.82-1.13L112.59,4.9A.7.7,0,0,0,112.44,5.88Z"/><path class="cls-1" d="M110.9,4.46a.7.7,0,0,0,.93-.35l1.06-2.41a.71.71,0,0,0-.36-.92.69.69,0,0,0-.92.36l-1.07,2.4A.71.71,0,0,0,110.9,4.46Z"/><path class="cls-1" d="M108.86,4a.7.7,0,0,0,.62-.77L109.2.62a.7.7,0,1,0-1.39.16l.28,2.61A.7.7,0,0,0,108.86,4Z"/><path class="cls-1" d="M105.89,4.49A.7.7,0,0,0,107,3.66l-1.55-2.12a.7.7,0,1,0-1.13.82Z"/><path class="cls-1" d="M145.77,15.69l-2.62-2.63-.06.06a9,9,0,0,0-11.8.75l-1.75,1.76a6.76,6.76,0,0,0-2.51-.49A6.88,6.88,0,1,0,133.92,22a6.75,6.75,0,0,0-.49-2.5l1.76-1.75a3.49,3.49,0,0,1,4.87,0l1.82,1.81a3.5,3.5,0,0,1,0,4.88L129.62,36.72a3.48,3.48,0,0,1-4.88,0L114.26,26.24a4.87,4.87,0,0,0,1.57-6l-1.32-2.74,3.85-6.39a2.12,2.12,0,0,0-3.63-2.19l-1.18,1.94v0l-.08.16-.3.49a2.5,2.5,0,0,1-1.83,1.25,3.68,3.68,0,0,1-2.24-1l-8-7.54a1.76,1.76,0,0,0-2.42,2.55l7.42,7h0l1.9,1.8a6.15,6.15,0,0,0-.76.32l-4-3.81a1.76,1.76,0,0,0-2.42,2.56l3.55,3.36-.53.58-3.58-3.37a1.76,1.76,0,1,0-2.42,2.55l4.21,4a6.89,6.89,0,0,0-.23.95L98.07,19a1.76,1.76,0,0,0-2.42,2.55l5.68,5.5a5.13,5.13,0,0,0,4.7,2.72,5.61,5.61,0,0,0,3-.89l11.77,11.76a9,9,0,0,0,12.66,0l12.26-12.26A9,9,0,0,0,145.77,15.69ZM127,24.77A2.75,2.75,0,1,1,129.79,22,2.75,2.75,0,0,1,127,24.77Z"/><path class="cls-1" d="M43.75,7.13a1,1,0,0,1-.26.31.65.65,0,0,1-.35.1,1,1,0,0,1-.54-.23c-.21-.16-.46-.32-.77-.51a7.56,7.56,0,0,0-1.13-.51,4.86,4.86,0,0,0-1.58-.22,4.6,4.6,0,0,0-1.55.23,3.39,3.39,0,0,0-1.12.64,2.64,2.64,0,0,0-.68.95,3.11,3.11,0,0,0-.23,1.19,2.15,2.15,0,0,0,.4,1.34,3.47,3.47,0,0,0,1.05.91,8.56,8.56,0,0,0,1.49.66l1.7.57c.58.2,1.15.42,1.7.67a5.65,5.65,0,0,1,1.48.94,4.21,4.21,0,0,1,1.06,1.39,4.66,4.66,0,0,1,.4,2A6.45,6.45,0,0,1,44.38,20a5.38,5.38,0,0,1-1.26,1.94,5.9,5.9,0,0,1-2,1.3,7.57,7.57,0,0,1-2.74.47A8.43,8.43,0,0,1,34.91,23a8.06,8.06,0,0,1-2.64-1.85L33,19.9a1,1,0,0,1,.26-.25.71.71,0,0,1,.35-.1.84.84,0,0,1,.4.14l.5.36c.19.15.41.3.65.47A5.85,5.85,0,0,0,36,21a6,6,0,0,0,2.4.5,5,5,0,0,0,1.66-.26,3.57,3.57,0,0,0,1.23-.72,3.06,3.06,0,0,0,.78-1.12A3.7,3.7,0,0,0,42.36,18a2.38,2.38,0,0,0-.4-1.44,3.3,3.3,0,0,0-1.05-.94,7.49,7.49,0,0,0-1.48-.64l-1.7-.54a16.5,16.5,0,0,1-1.7-.64,5.54,5.54,0,0,1-1.49-.94,4.35,4.35,0,0,1-1-1.46,5.06,5.06,0,0,1-.4-2.15,5,5,0,0,1,.4-2,4.91,4.91,0,0,1,1.16-1.7,5.5,5.5,0,0,1,1.87-1.19,6.84,6.84,0,0,1,2.56-.45A8.19,8.19,0,0,1,42,4.4a7,7,0,0,1,2.34,1.49Z"/><path class="cls-1" d="M49.9,11.76a8.9,8.9,0,0,1,1-.9,6.7,6.7,0,0,1,1.06-.7,5.58,5.58,0,0,1,2.54-.6,5.07,5.07,0,0,1,2,.37A3.8,3.8,0,0,1,57.86,11a4.37,4.37,0,0,1,.87,1.64,7.05,7.05,0,0,1,.3,2.12v8.7H56.61v-8.7a3.68,3.68,0,0,0-.7-2.41,2.62,2.62,0,0,0-2.16-.86,4.07,4.07,0,0,0-2,.51,6.7,6.7,0,0,0-1.71,1.39V23.45H47.64V9.78h1.44a.6.6,0,0,1,.64.5Z"/><path class="cls-1" d="M62.35,11.71a7.81,7.81,0,0,1,2.45-1.64,7.72,7.72,0,0,1,2.9-.54,5.26,5.26,0,0,1,2,.38A4.13,4.13,0,0,1,71.23,11a4.28,4.28,0,0,1,.92,1.63,6.72,6.72,0,0,1,.31,2.11v8.74H71.4a1,1,0,0,1-.54-.11.78.78,0,0,1-.3-.45l-.27-1.3a12.9,12.9,0,0,1-1.05.88,6.07,6.07,0,0,1-1.08.65,5.94,5.94,0,0,1-1.21.41,6.93,6.93,0,0,1-1.43.14A5.11,5.11,0,0,1,64,23.45a3.49,3.49,0,0,1-1.23-.67A3.17,3.17,0,0,1,62,21.65a4,4,0,0,1-.3-1.61,3.07,3.07,0,0,1,.44-1.56,3.94,3.94,0,0,1,1.45-1.33,9,9,0,0,1,2.6-.95,20,20,0,0,1,3.94-.43V14.71a3.68,3.68,0,0,0-.68-2.41,2.48,2.48,0,0,0-2-.82,4.3,4.3,0,0,0-1.49.22,6.31,6.31,0,0,0-1,.5l-.75.5a1.07,1.07,0,0,1-.63.22.74.74,0,0,1-.42-.12,1.3,1.3,0,0,1-.3-.32Zm7.76,5.59a19,19,0,0,0-2.82.26,7.86,7.86,0,0,0-1.91.55,2.6,2.6,0,0,0-1.06.79,1.73,1.73,0,0,0-.33,1,2.21,2.21,0,0,0,.17.93,1.74,1.74,0,0,0,.48.64,1.89,1.89,0,0,0,.72.37,3.48,3.48,0,0,0,.88.11,4.68,4.68,0,0,0,1.16-.13,4.2,4.2,0,0,0,1-.37,5,5,0,0,0,.89-.58,6.59,6.59,0,0,0,.83-.77Z"/><path class="cls-1" d="M78.42,11.9a7,7,0,0,1,2-1.72A5.11,5.11,0,0,1,83,9.53a5,5,0,0,1,2.14.46,4.37,4.37,0,0,1,1.64,1.33,6.52,6.52,0,0,1,1,2.2,11.34,11.34,0,0,1,.36,3,9.4,9.4,0,0,1-.4,2.81,6.82,6.82,0,0,1-1.17,2.26,5.44,5.44,0,0,1-1.87,1.49,5.37,5.37,0,0,1-2.47.55,5.07,5.07,0,0,1-2.16-.42A5.31,5.31,0,0,1,78.54,22v21.7H76.12v-34h1.45a.58.58,0,0,1,.63.5Zm.12,8.26A3.87,3.87,0,0,0,80,21.41a4,4,0,0,0,1.76.37,3.48,3.48,0,0,0,2.94-1.36,6.41,6.41,0,0,0,1-3.89,9.61,9.61,0,0,0-.24-2.3,4.65,4.65,0,0,0-.68-1.57,2.65,2.65,0,0,0-1.1-.9,3.6,3.6,0,0,0-1.47-.28,3.82,3.82,0,0,0-2,.54,6,6,0,0,0-1.63,1.52Z"/><path class="cls-1" d="M14.77,39.57a.51.51,0,0,1,.38.18l1,1.12A8.3,8.3,0,0,1,13.3,43a9.73,9.73,0,0,1-4.09.77,9.58,9.58,0,0,1-3.78-.72,8.32,8.32,0,0,1-2.91-2A9.14,9.14,0,0,1,.66,37.91a11.67,11.67,0,0,1-.66-4,11.25,11.25,0,0,1,.69-4,9.09,9.09,0,0,1,1.94-3.13,8.57,8.57,0,0,1,3-2A10,10,0,0,1,9.46,24a9.4,9.4,0,0,1,3.65.66,9.28,9.28,0,0,1,2.78,1.79L15,27.67a.88.88,0,0,1-.21.22.61.61,0,0,1-.35.09,1,1,0,0,1-.59-.27,9.58,9.58,0,0,0-.92-.58,6.6,6.6,0,0,0-1.42-.59,6.93,6.93,0,0,0-2.09-.27,7,7,0,0,0-2.74.53,5.85,5.85,0,0,0-2.14,1.5,7.1,7.1,0,0,0-1.4,2.4,9.72,9.72,0,0,0-.5,3.2,9.51,9.51,0,0,0,.52,3.23,7.31,7.31,0,0,0,1.42,2.4A6.18,6.18,0,0,0,6.73,41a6.75,6.75,0,0,0,2.64.51,10.67,10.67,0,0,0,1.56-.1,6.15,6.15,0,0,0,1.28-.32,4.65,4.65,0,0,0,1.09-.55,7.12,7.12,0,0,0,1-.79A.72.72,0,0,1,14.77,39.57Z"/><path class="cls-1" d="M24.15,29.68a6.84,6.84,0,0,1,2.7.5,5.7,5.7,0,0,1,2,1.41,6.47,6.47,0,0,1,1.31,2.22,9.67,9.67,0,0,1,0,5.83,6.33,6.33,0,0,1-1.31,2.21,5.46,5.46,0,0,1-2,1.41,7,7,0,0,1-2.7.5,7.13,7.13,0,0,1-2.72-.5,5.57,5.57,0,0,1-2.06-1.41,6.31,6.31,0,0,1-1.3-2.21,9.67,9.67,0,0,1,0-5.83,6.44,6.44,0,0,1,1.3-2.22,5.82,5.82,0,0,1,2.06-1.41A6.94,6.94,0,0,1,24.15,29.68Zm0,12.2a3.52,3.52,0,0,0,3-1.36,6.29,6.29,0,0,0,1-3.78,6.39,6.39,0,0,0-1-3.81,3.52,3.52,0,0,0-3-1.36,4.18,4.18,0,0,0-1.79.35,3.3,3.3,0,0,0-1.27,1,4.47,4.47,0,0,0-.75,1.63,8.54,8.54,0,0,0-.25,2.18,6.22,6.22,0,0,0,1,3.78A3.55,3.55,0,0,0,24.15,41.88Z"/><path class="cls-1" d="M36,31.88a9,9,0,0,1,.95-.91A5.67,5.67,0,0,1,38,30.28a5.32,5.32,0,0,1,1.19-.45,5.82,5.82,0,0,1,1.35-.15,4.89,4.89,0,0,1,2,.37,3.88,3.88,0,0,1,1.43,1.05,4.76,4.76,0,0,1,.87,1.64,7.1,7.1,0,0,1,.3,2.12v8.71H42.67V34.86A3.65,3.65,0,0,0,42,32.45a2.63,2.63,0,0,0-2.15-.86,4,4,0,0,0-2,.52,6.34,6.34,0,0,0-1.71,1.39V43.57H33.7V29.89h1.44a.59.59,0,0,1,.63.5Z"/><path class="cls-1" d="M56.73,32.15a.53.53,0,0,1-.5.29,1,1,0,0,1-.46-.14q-.26-.15-.63-.33a4.9,4.9,0,0,0-.88-.34A4.06,4.06,0,0,0,53,31.47a3.38,3.38,0,0,0-1.09.16,2.49,2.49,0,0,0-.83.42,1.86,1.86,0,0,0-.53.63,1.72,1.72,0,0,0-.18.78,1.28,1.28,0,0,0,.3.87,2.58,2.58,0,0,0,.81.61,7,7,0,0,0,1.13.45l1.3.42c.45.15.88.32,1.31.5a4.69,4.69,0,0,1,1.13.67,3.09,3.09,0,0,1,.8,1,3,3,0,0,1,.31,1.41,4.55,4.55,0,0,1-.34,1.75,3.84,3.84,0,0,1-1,1.39,4.92,4.92,0,0,1-1.62.93,6.8,6.8,0,0,1-2.21.33,7,7,0,0,1-2.6-.46,6.53,6.53,0,0,1-2-1.2l.57-.91a.75.75,0,0,1,.26-.27.62.62,0,0,1,.37-.1.88.88,0,0,1,.52.19c.18.13.4.27.65.42a5.58,5.58,0,0,0,.94.42,4.5,4.5,0,0,0,1.38.19,3.53,3.53,0,0,0,1.23-.19,2.44,2.44,0,0,0,.87-.49,1.86,1.86,0,0,0,.52-.71,2.11,2.11,0,0,0,.17-.87,1.45,1.45,0,0,0-.3-.94,2.51,2.51,0,0,0-.81-.63A6,6,0,0,0,53,37.77l-1.31-.41c-.44-.14-.88-.31-1.3-.49a4.91,4.91,0,0,1-1.15-.7,3.14,3.14,0,0,1-.8-1,3.38,3.38,0,0,1-.3-1.49,3.64,3.64,0,0,1,1.27-2.78A4.77,4.77,0,0,1,50.92,30,6.25,6.25,0,0,1,53,29.68a6.57,6.57,0,0,1,2.42.42,5.89,5.89,0,0,1,1.86,1.17Z"/><path class="cls-1" d="M71.7,29.89V43.57H70.27a.61.61,0,0,1-.65-.5l-.19-1.47a7.35,7.35,0,0,1-2,1.58,5.24,5.24,0,0,1-2.54.6,4.88,4.88,0,0,1-2-.37,3.79,3.79,0,0,1-1.44-1,4.37,4.37,0,0,1-.87-1.64,7.06,7.06,0,0,1-.29-2.12V29.89h2.4v8.72A3.68,3.68,0,0,0,63.43,41a2.67,2.67,0,0,0,2.17.85,4.07,4.07,0,0,0,2-.51,6.31,6.31,0,0,0,1.7-1.4V29.89Z"/><path class="cls-1" d="M86.07,43.78a3.32,3.32,0,0,1-2.49-.9,3.61,3.61,0,0,1-.87-2.61V31.9H81.07a.57.57,0,0,1-.37-.12.51.51,0,0,1-.15-.4v-1l2.24-.28.56-4.23a.67.67,0,0,1,.18-.33.51.51,0,0,1,.37-.13h1.22v4.71h3.95V31.9H85.12v8.21a1.76,1.76,0,0,0,.41,1.28,1.46,1.46,0,0,0,1.08.42,1.87,1.87,0,0,0,.66-.1,3.61,3.61,0,0,0,.48-.22l.34-.22a.45.45,0,0,1,.25-.1.41.41,0,0,1,.34.22l.7,1.15a4.34,4.34,0,0,1-1.5.91A5,5,0,0,1,86.07,43.78Z"/></svg>