<svg id="Calque_1" data-name="Calque 1" xmlns="http://www.w3.org/2000/svg" viewBox="0 0 107.2 32.75"><defs><style>.cls-1{fill:#ffffff;}</style></defs><title>Plan de travail 1</title><path class="cls-1" d="M80,4.45a.53.53,0,0,0,.74.12l1.61-1.18a.53.53,0,1,0-.63-.85l-1.6,1.17A.53.53,0,0,0,80,4.45Z"/><path class="cls-1" d="M78.79,3.38a.52.52,0,0,0,.7-.27l.81-1.82a.53.53,0,0,0-1-.43l-.81,1.82A.54.54,0,0,0,78.79,3.38Z"/><path class="cls-1" d="M77.25,3a.53.53,0,0,0,.47-.59l-.22-2A.53.53,0,0,0,76.92,0a.54.54,0,0,0-.47.59l.21,2A.54.54,0,0,0,77.25,3Z"/><path class="cls-1" d="M75,3.4a.52.52,0,0,0,.74.11.53.53,0,0,0,.11-.74L74.68,1.16a.55.55,0,0,0-.75-.11.54.54,0,0,0-.11.74Z"/><path class="cls-1" d="M105.22,11.89l-2-2,0,0a6.8,6.8,0,0,0-8.93.57l-1.33,1.33a5.21,5.21,0,1,0,3,2.95l1.33-1.33a2.64,2.64,0,0,1,3.69,0l1.38,1.38a2.64,2.64,0,0,1,0,3.69L93,27.82a2.63,2.63,0,0,1-3.7,0l-7.94-7.94a3.68,3.68,0,0,0,1.19-4.58l-1-2.08,2.92-4.84a1.61,1.61,0,0,0-2.76-1.66L80.8,8.19h0l-.06.11-.22.38a1.91,1.91,0,0,1-1.39.95,2.85,2.85,0,0,1-1.7-.79l-6-5.72A1.33,1.33,0,1,0,69.57,5l5.61,5.32h0l1.44,1.36c-.2.08-.39.15-.59.25L73,9.1A1.33,1.33,0,0,0,71.15,11l2.69,2.55a5.48,5.48,0,0,0-.4.44l-2.72-2.56a1.33,1.33,0,0,0-1.83,1.94l3.19,3a4.74,4.74,0,0,0-.18.72l-2.83-2.75a1.33,1.33,0,0,0-1.83,1.94l4.3,4.16a3.88,3.88,0,0,0,3.56,2.06,4.24,4.24,0,0,0,2.32-.67l8.91,8.91a6.81,6.81,0,0,0,9.6,0l9.29-9.29A6.8,6.8,0,0,0,105.22,11.89ZM91,18.77a2.09,2.09,0,1,1,2.08-2.08A2.09,2.09,0,0,1,91,18.77Z"/><path d="M17.68,4.43,13.8,16.9H12L9,7.94l-.1-.32c0-.11-.06-.24-.09-.37,0,.13-.06.26-.09.37a2.42,2.42,0,0,1-.1.32l-2.95,9H3.88L0,4.43H1.7a.78.78,0,0,1,.44.12.63.63,0,0,1,.23.34l2.34,8c0,.17.09.36.13.56l.12.63c0-.22.09-.43.14-.63a5.48,5.48,0,0,1,.16-.56l2.68-8a.77.77,0,0,1,.24-.32.64.64,0,0,1,.43-.14H9.2a.65.65,0,0,1,.43.13.81.81,0,0,1,.25.33l2.67,8c.06.17.11.35.16.54s.1.4.14.61c0-.21.08-.42.11-.61s.08-.37.13-.54l2.33-8a.61.61,0,0,1,.24-.33.71.71,0,0,1,.43-.13Z"/><path d="M21.19,5.4a1.28,1.28,0,0,1-.1.47,1.56,1.56,0,0,1-.27.4,1.25,1.25,0,0,1-.41.26,1.13,1.13,0,0,1-.49.1,1.1,1.1,0,0,1-.47-.1,1.12,1.12,0,0,1-.38-.26,1.56,1.56,0,0,1-.27-.4,1.28,1.28,0,0,1-.1-.47,1.3,1.3,0,0,1,.1-.49,1.36,1.36,0,0,1,.27-.39,1,1,0,0,1,.38-.27,1.1,1.1,0,0,1,.47-.1,1.31,1.31,0,0,1,.9.37,1.36,1.36,0,0,1,.27.39A1.3,1.3,0,0,1,21.19,5.4Zm-.31,2.66V16.9H19V8.06Z"/><path d="M25,9.23a5.88,5.88,0,0,1,.59-.53,3.39,3.39,0,0,1,.65-.41A3.12,3.12,0,0,1,27,8a3.76,3.76,0,0,1,.85-.09,3.21,3.21,0,0,1,1.28.24,2.6,2.6,0,0,1,.92.68,3.09,3.09,0,0,1,.57,1.06,4.58,4.58,0,0,1,.19,1.37V16.9H28.91V11.28a2.13,2.13,0,0,0-.41-1.39,1.56,1.56,0,0,0-1.26-.49,2.39,2.39,0,0,0-1.15.28,3.82,3.82,0,0,0-1,.78V16.9H23.22V8.06h1.13a.47.47,0,0,1,.49.36Z"/><path d="M48.85,4.43,45,16.9H43.14l-2.93-9c0-.1-.07-.2-.1-.32s-.06-.24-.09-.37c0,.13-.06.26-.09.37s-.07.22-.1.32l-2.95,9H35.05L31.17,4.43h1.7a.75.75,0,0,1,.43.12.6.6,0,0,1,.24.34l2.34,8c0,.17.09.36.13.56s.08.41.12.63c0-.22.09-.43.14-.63a3.74,3.74,0,0,1,.16-.56l2.67-8a.77.77,0,0,1,.24-.32.68.68,0,0,1,.44-.14h.59a.65.65,0,0,1,.43.13.9.9,0,0,1,.25.33l2.67,8c.06.17.11.35.16.54s.09.4.13.61c0-.21.08-.42.12-.61s.08-.37.13-.54l2.33-8a.65.65,0,0,1,.23-.33.74.74,0,0,1,.44-.13Z"/><path d="M52.36,5.4a1.28,1.28,0,0,1-.1.47,1.38,1.38,0,0,1-.28.4,1.2,1.2,0,0,1-.4.26,1.16,1.16,0,0,1-.49.1,1.07,1.07,0,0,1-.47-.1,1.16,1.16,0,0,1-.39-.26,1.53,1.53,0,0,1-.26-.4,1.1,1.1,0,0,1-.1-.47,1.13,1.13,0,0,1,.1-.49,1.33,1.33,0,0,1,.26-.39,1.05,1.05,0,0,1,.39-.27,1.07,1.07,0,0,1,.47-.1,1.16,1.16,0,0,1,.49.1,1.09,1.09,0,0,1,.4.27,1.21,1.21,0,0,1,.28.39A1.3,1.3,0,0,1,52.36,5.4ZM52,8.06V16.9H50.18V8.06Z"/><path d="M56.13,9.23a6,6,0,0,1,.6-.53,3.39,3.39,0,0,1,.65-.41A3.12,3.12,0,0,1,58.12,8,3.76,3.76,0,0,1,59,7.93a3.13,3.13,0,0,1,1.27.24,2.55,2.55,0,0,1,.93.68,3.09,3.09,0,0,1,.57,1.06,4.93,4.93,0,0,1,.19,1.37V16.9H60.07V11.28a2.08,2.08,0,0,0-.41-1.39,1.52,1.52,0,0,0-1.25-.49,2.45,2.45,0,0,0-1.16.28,4.18,4.18,0,0,0-1,.78V16.9H54.39V8.06h1.13a.46.46,0,0,1,.48.36Z"/><path d="M15.28,28.08a.35.35,0,0,1,.28.13l.81.87A5.14,5.14,0,0,1,14.5,30.5a6.49,6.49,0,0,1-2.65.5,6.16,6.16,0,0,1-2.48-.48,5.44,5.44,0,0,1-1.88-1.31,5.92,5.92,0,0,1-1.2-2,7.53,7.53,0,0,1-.42-2.57A7.39,7.39,0,0,1,6.31,22a6.06,6.06,0,0,1,1.26-2,5.69,5.69,0,0,1,1.94-1.31A6.46,6.46,0,0,1,12,18.24a6.14,6.14,0,0,1,2.39.44,5.83,5.83,0,0,1,1.8,1.17l-.67.94a.91.91,0,0,1-.17.17.48.48,0,0,1-.26.06.69.69,0,0,1-.39-.16c-.15-.1-.33-.22-.56-.35a4.74,4.74,0,0,0-.86-.36A4.62,4.62,0,0,0,12,20a4.12,4.12,0,0,0-1.63.32,3.45,3.45,0,0,0-1.29.91,4.27,4.27,0,0,0-.83,1.45,5.87,5.87,0,0,0-.3,1.95,5.68,5.68,0,0,0,.31,2A4.21,4.21,0,0,0,9.11,28a3.72,3.72,0,0,0,1.28.9,4,4,0,0,0,1.59.31,6.69,6.69,0,0,0,.93-.05,4.44,4.44,0,0,0,.76-.18,3.92,3.92,0,0,0,.65-.32,4.16,4.16,0,0,0,.61-.47A.52.52,0,0,1,15.28,28.08Z"/><path d="M21.42,21.88a4.77,4.77,0,0,1,1.77.32,3.88,3.88,0,0,1,1.35.91,4,4,0,0,1,.86,1.43,5.92,5.92,0,0,1,0,3.78,4,4,0,0,1-.86,1.43,3.77,3.77,0,0,1-1.35.92,5.08,5.08,0,0,1-3.55,0,3.9,3.9,0,0,1-1.36-.92,4,4,0,0,1-.86-1.43,5.92,5.92,0,0,1,0-3.78,3.79,3.79,0,0,1,2.22-2.34A4.78,4.78,0,0,1,21.42,21.88Zm0,7.65a2.08,2.08,0,0,0,1.78-.8,3.84,3.84,0,0,0,.58-2.29,3.89,3.89,0,0,0-.58-2.3,2.06,2.06,0,0,0-1.78-.81,2.07,2.07,0,0,0-1.8.81,3.82,3.82,0,0,0-.59,2.3,3.76,3.76,0,0,0,.59,2.29A2.09,2.09,0,0,0,21.42,29.53Z"/><path d="M29.23,23.19a5.76,5.76,0,0,1,.59-.53,3.8,3.8,0,0,1,.66-.41,3,3,0,0,1,.73-.27,3.3,3.3,0,0,1,.85-.1,3.18,3.18,0,0,1,1.28.24,2.57,2.57,0,0,1,.93.69,3,3,0,0,1,.57,1.06A4.86,4.86,0,0,1,35,25.23v5.63H33.17V25.23a2.07,2.07,0,0,0-.41-1.38,1.53,1.53,0,0,0-1.25-.5,2.43,2.43,0,0,0-1.16.29,4,4,0,0,0-1,.78v6.44H27.49V22h1.13a.46.46,0,0,1,.48.36Z"/><path d="M42.48,23.62a.45.45,0,0,1-.15.18.48.48,0,0,1-.22.05.71.71,0,0,1-.32-.09l-.41-.21a3.81,3.81,0,0,0-.55-.2,2.68,2.68,0,0,0-.74-.09,2.33,2.33,0,0,0-.62.08,1.35,1.35,0,0,0-.48.24,1.1,1.1,0,0,0-.3.35,1,1,0,0,0-.1.44.73.73,0,0,0,.19.52,1.5,1.5,0,0,0,.5.36,4.8,4.8,0,0,0,.71.27l.81.26a8.18,8.18,0,0,1,.82.32,3.06,3.06,0,0,1,.71.45,2,2,0,0,1,.5.64,1.94,1.94,0,0,1,.19.91,2.88,2.88,0,0,1-.22,1.15,2.52,2.52,0,0,1-.66.92,3.14,3.14,0,0,1-1.08.61,4.75,4.75,0,0,1-1.48.22,4.41,4.41,0,0,1-.89-.09,5.36,5.36,0,0,1-.81-.22,4.79,4.79,0,0,1-.72-.34,3.94,3.94,0,0,1-.59-.44L37,29.2a.64.64,0,0,1,.2-.2.5.5,0,0,1,.29-.08.65.65,0,0,1,.36.12,4.27,4.27,0,0,0,.41.26,3.59,3.59,0,0,0,.58.25,2.49,2.49,0,0,0,.84.12,2.24,2.24,0,0,0,.72-.1,1.58,1.58,0,0,0,.5-.27,1.11,1.11,0,0,0,.29-.4,1,1,0,0,0,.1-.47.78.78,0,0,0-.19-.55,1.7,1.7,0,0,0-.51-.38,5,5,0,0,0-.72-.27L39.05,27c-.27-.1-.55-.2-.81-.32a2.71,2.71,0,0,1-.72-.47A2.06,2.06,0,0,1,37,25.5a2.26,2.26,0,0,1-.19-1,2.47,2.47,0,0,1,.21-1,2.33,2.33,0,0,1,.63-.84,3.19,3.19,0,0,1,1-.58,4.19,4.19,0,0,1,1.39-.21,4.45,4.45,0,0,1,1.62.29A3.55,3.55,0,0,1,42.9,23Z"/><path d="M52.22,22v8.84H51.09a.45.45,0,0,1-.47-.36l-.14-.82c-.19.19-.38.37-.58.54a3.8,3.8,0,0,1-.66.41,3.12,3.12,0,0,1-.74.27,3.72,3.72,0,0,1-.84.1,3.22,3.22,0,0,1-1.29-.25,2.55,2.55,0,0,1-.93-.68A2.91,2.91,0,0,1,44.88,29a4.58,4.58,0,0,1-.2-1.37V22h1.87v5.62A2.08,2.08,0,0,0,47,29a1.52,1.52,0,0,0,1.25.49,2.41,2.41,0,0,0,1.15-.28,4.19,4.19,0,0,0,1-.77V22Z"/><path d="M56.39,18V30.86H54.52V18Z"/><path d="M61.52,31a2.25,2.25,0,0,1-1.69-.62,2.43,2.43,0,0,1-.59-1.75V23.48h-1a.4.4,0,0,1-.27-.09.37.37,0,0,1-.11-.3v-.76l1.43-.21.4-2.55a.49.49,0,0,1,.15-.24.41.41,0,0,1,.28-.09h1v2.9h2.45v1.34H61.1v5a1.06,1.06,0,0,0,.23.73.82.82,0,0,0,.63.25,1,1,0,0,0,.37-.06,1.69,1.69,0,0,0,.27-.12l.19-.12a.29.29,0,0,1,.16-.06.27.27,0,0,1,.25.18l.56.91a3,3,0,0,1-1,.58A3.64,3.64,0,0,1,61.52,31Z"/></svg>