<?xml version="1.0" encoding="utf-8"?>
<!-- Generator: Adobe Illustrator 22.1.0, SVG Export Plug-In . SVG Version: 6.00 Build 0)  -->
<svg version="1.1" id="Calque_1" xmlns="http://www.w3.org/2000/svg" xmlns:xlink="http://www.w3.org/1999/xlink" x="0px" y="0px"
	 viewBox="0 0 107.2 32.8" style="enable-background:new 0 0 107.2 32.8;" xml:space="preserve">
<style type="text/css">
	.st0{fill:#FFFFFF;}
</style>
<title>Plan de travail 1</title>
<path class="st0" d="M80,4.4c0.2,0.2,0.5,0.3,0.7,0.1c0,0,0,0,0,0l1.6-1.2c0.2-0.2,0.3-0.5,0.2-0.7S82,2.3,81.8,2.5c0,0,0,0-0.1,0
	l-1.6,1.2C79.9,3.9,79.8,4.2,80,4.4C80,4.4,80,4.4,80,4.4z"/>
<path class="st0" d="M78.8,3.4c0.3,0.1,0.6,0,0.7-0.3c0,0,0,0,0,0l0.8-1.8c0.1-0.3,0-0.6-0.3-0.7c-0.3-0.1-0.6,0-0.7,0.3l0,0
	l-0.8,1.8C78.4,3,78.5,3.3,78.8,3.4z"/>
<path class="st0" d="M77.2,3c0.3,0,0.5-0.3,0.5-0.6c0,0,0,0,0,0l-0.2-2C77.4,0.1,77.2,0,76.9,0c-0.3,0-0.5,0.3-0.5,0.6l0.2,2
	C76.7,2.9,77,3,77.2,3z"/>
<path class="st0" d="M75,3.4c0.2,0.2,0.5,0.3,0.7,0.1c0,0,0,0,0,0C76,3.3,76,3,75.8,2.8l-1.2-1.6c-0.2-0.2-0.5-0.3-0.8-0.1
	c-0.2,0.2-0.3,0.5-0.1,0.7L75,3.4z"/>
<path class="st0" d="M105.2,11.9l-2-2l0,0c-2.7-2.1-6.5-1.8-8.9,0.6L93,11.8c-2.7-1-5.7,0.3-6.7,3s0.3,5.7,3,6.7
	c2.7,1,5.7-0.3,6.7-3c0.5-1.2,0.4-2.6,0-3.8l1.3-1.3c1-1,2.7-1,3.7,0l1.4,1.4c1,1,1,2.7,0,3.7L93,27.8c-1,1-2.7,1-3.7,0l-7.9-7.9
	c1.5-1,2-3,1.2-4.6l-1-2.1l2.9-4.8c0.5-0.8,0.2-1.8-0.6-2.2S82.2,6,81.7,6.7l0,0l-0.9,1.5l0,0l-0.1,0.1l-0.2,0.4
	c-0.3,0.5-0.8,0.9-1.4,0.9c-0.6-0.1-1.2-0.3-1.7-0.8l-6-5.7c-0.5-0.6-1.3-0.7-1.9-0.2c-0.6,0.5-0.7,1.3-0.2,1.9
	c0.1,0.1,0.1,0.1,0.2,0.2l5.6,5.3l0,0l1.4,1.4c-0.2,0.1-0.4,0.1-0.6,0.2l-3-2.8c-0.6-0.5-1.4-0.4-1.9,0.2c-0.4,0.5-0.4,1.2,0,1.7
	l2.7,2.6c-0.1,0.1-0.3,0.3-0.4,0.4l-2.7-2.6c-0.5-0.5-1.4-0.5-1.9,0.1s-0.5,1.4,0.1,1.9l3.2,3c-0.1,0.2-0.1,0.5-0.2,0.7l-2.8-2.8
	c-0.5-0.5-1.4-0.5-1.9,0.1s-0.5,1.4,0.1,1.9l4.3,4.2c0.7,1.3,2.1,2.1,3.6,2.1c0.8,0,1.6-0.2,2.3-0.7l8.9,8.9c2.7,2.6,6.9,2.6,9.6,0
	l9.3-9.3C107.8,18.8,107.8,14.5,105.2,11.9z M91,18.8c-1.2,0-2.1-0.9-2.1-2.1s0.9-2.1,2.1-2.1c1.2,0,2.1,0.9,2.1,2.1c0,0,0,0,0,0
	C93.1,17.8,92.1,18.8,91,18.8z"/>
<path class="st0" d="M17.7,4.4l-3.9,12.5H12l-3-9L8.9,7.6c0-0.1-0.1-0.2-0.1-0.4c0,0.1-0.1,0.3-0.1,0.4c0,0.1-0.1,0.2-0.1,0.3
	l-2.9,9H3.9L0,4.4h1.7c0.2,0,0.3,0,0.4,0.1c0.1,0.1,0.2,0.2,0.2,0.3l2.3,8c0,0.2,0.1,0.4,0.1,0.6L5,14.1c0-0.2,0.1-0.4,0.1-0.6
	c0-0.2,0.1-0.4,0.2-0.6l2.7-8C8,4.8,8.1,4.7,8.2,4.6c0.1-0.1,0.3-0.1,0.4-0.1h0.6c0.2,0,0.3,0,0.4,0.1c0.1,0.1,0.2,0.2,0.2,0.3
	l2.7,8c0.1,0.2,0.1,0.4,0.2,0.5s0.1,0.4,0.1,0.6c0-0.2,0.1-0.4,0.1-0.6s0.1-0.4,0.1-0.5l2.3-8c0-0.1,0.1-0.3,0.2-0.3
	c0.1-0.1,0.3-0.1,0.4-0.1L17.7,4.4z"/>
<path class="st0" d="M21.2,5.4c0,0.2,0,0.3-0.1,0.5C21,6,20.9,6.2,20.8,6.3c-0.1,0.1-0.3,0.2-0.4,0.3c-0.2,0.1-0.3,0.1-0.5,0.1
	c-0.2,0-0.3,0-0.5-0.1c-0.1-0.1-0.3-0.1-0.4-0.3C19,6.2,18.9,6,18.8,5.9c-0.1-0.1-0.1-0.3-0.1-0.5c0-0.2,0-0.3,0.1-0.5
	c0.1-0.1,0.2-0.3,0.3-0.4c0.1-0.1,0.2-0.2,0.4-0.3c0.1-0.1,0.3-0.1,0.5-0.1c0.3,0,0.7,0.1,0.9,0.4c0.1,0.1,0.2,0.2,0.3,0.4
	C21.2,5.1,21.2,5.2,21.2,5.4z M20.9,8.1v8.8H19V8.1H20.9z"/>
<path class="st0" d="M25,9.2c0.2-0.2,0.4-0.4,0.6-0.5c0.2-0.2,0.4-0.3,0.6-0.4C26.5,8.2,26.7,8.1,27,8c0.3-0.1,0.6-0.1,0.9-0.1
	c0.4,0,0.9,0.1,1.3,0.2c0.4,0.2,0.7,0.4,0.9,0.7c0.3,0.3,0.5,0.7,0.6,1.1c0.1,0.4,0.2,0.9,0.2,1.4v5.6h-1.9v-5.6
	c0-0.5-0.1-1-0.4-1.4c-0.3-0.3-0.8-0.5-1.3-0.5c-0.4,0-0.8,0.1-1.1,0.3c-0.4,0.2-0.7,0.5-1,0.8v6.4h-1.9V8.1h1.1
	c0.2,0,0.4,0.1,0.5,0.4L25,9.2z"/>
<path class="st0" d="M48.8,4.4L45,16.9h-1.9l-2.9-9c0-0.1-0.1-0.2-0.1-0.3S40,7.3,40,7.2c0,0.1-0.1,0.3-0.1,0.4s-0.1,0.2-0.1,0.3
	l-3,9H35L31.2,4.4h1.7c0.2,0,0.3,0,0.4,0.1c0.1,0.1,0.2,0.2,0.2,0.3l2.3,8c0,0.2,0.1,0.4,0.1,0.6s0.1,0.4,0.1,0.6
	c0-0.2,0.1-0.4,0.1-0.6c0-0.2,0.1-0.4,0.2-0.6l2.7-8c0.1-0.1,0.1-0.2,0.2-0.3c0.1-0.1,0.3-0.1,0.4-0.1h0.6c0.2,0,0.3,0,0.4,0.1
	C40.9,4.6,41,4.8,41,4.9l2.7,8c0.1,0.2,0.1,0.4,0.2,0.5S44,13.8,44,14c0-0.2,0.1-0.4,0.1-0.6s0.1-0.4,0.1-0.5l2.3-8
	c0-0.1,0.1-0.2,0.2-0.3c0.1-0.1,0.3-0.1,0.4-0.1L48.8,4.4z"/>
<path class="st0" d="M52.4,5.4c0,0.2,0,0.3-0.1,0.5C52.2,6,52.1,6.2,52,6.3c-0.1,0.1-0.3,0.2-0.4,0.3c-0.2,0.1-0.3,0.1-0.5,0.1
	c-0.2,0-0.3,0-0.5-0.1c-0.1-0.1-0.3-0.1-0.4-0.3C50.1,6.2,50,6,50,5.9c-0.1-0.1-0.1-0.3-0.1-0.5c0-0.2,0-0.3,0.1-0.5
	c0.1-0.1,0.2-0.3,0.3-0.4c0.1-0.1,0.2-0.2,0.4-0.3c0.1-0.1,0.3-0.1,0.5-0.1c0.2,0,0.3,0,0.5,0.1c0.2,0.1,0.3,0.2,0.4,0.3
	c0.1,0.1,0.2,0.2,0.3,0.4C52.3,5.1,52.4,5.2,52.4,5.4z M52,8.1v8.8h-1.8V8.1H52z"/>
<path class="st0" d="M56.1,9.2c0.2-0.2,0.4-0.4,0.6-0.5c0.2-0.2,0.4-0.3,0.7-0.4c0.2-0.1,0.5-0.2,0.7-0.3c0.3-0.1,0.6-0.1,0.9-0.1
	c0.4,0,0.9,0.1,1.3,0.2c0.4,0.2,0.7,0.4,0.9,0.7c0.3,0.3,0.5,0.7,0.6,1.1c0.1,0.4,0.2,0.9,0.2,1.4v5.6h-1.9v-5.6
	c0-0.5-0.1-1-0.4-1.4c-0.3-0.3-0.8-0.5-1.2-0.5c-0.4,0-0.8,0.1-1.2,0.3c-0.4,0.2-0.7,0.5-1,0.8v6.4h-1.9V8.1h1.1
	C55.7,8,56,8.2,56,8.4L56.1,9.2z"/>
<path class="st0" d="M15.3,28.1c0.1,0,0.2,0,0.3,0.1l0.8,0.9c-0.5,0.6-1.1,1.1-1.9,1.4c-0.8,0.4-1.7,0.5-2.6,0.5
	c-0.9,0-1.7-0.2-2.5-0.5c-0.7-0.3-1.4-0.7-1.9-1.3c-0.5-0.6-0.9-1.3-1.2-2c-0.3-0.8-0.4-1.7-0.4-2.6c0-0.9,0.1-1.8,0.4-2.6
	c0.3-0.7,0.7-1.4,1.3-2c0.5-0.6,1.2-1,1.9-1.3c0.8-0.3,1.6-0.5,2.5-0.5c0.8,0,1.6,0.1,2.4,0.4c0.7,0.3,1.3,0.7,1.8,1.2l-0.7,0.9
	c0,0.1-0.1,0.1-0.2,0.2c-0.1,0-0.2,0.1-0.3,0.1c-0.1,0-0.3-0.1-0.4-0.2c-0.1-0.1-0.3-0.2-0.6-0.4c-0.3-0.1-0.6-0.3-0.9-0.4
	C12.9,20,12.4,20,12,20c-0.6,0-1.1,0.1-1.6,0.3c-0.5,0.2-0.9,0.5-1.3,0.9c-0.4,0.4-0.7,0.9-0.8,1.5c-0.2,0.6-0.3,1.3-0.3,2
	c0,0.7,0.1,1.4,0.3,2c0.2,0.5,0.5,1,0.8,1.4c0.4,0.4,0.8,0.7,1.3,0.9c0.5,0.2,1,0.3,1.6,0.3c0.3,0,0.6,0,0.9,0
	c0.3,0,0.5-0.1,0.8-0.2c0.2-0.1,0.4-0.2,0.6-0.3c0.2-0.1,0.4-0.3,0.6-0.5C15,28.1,15.2,28.1,15.3,28.1z"/>
<path class="st0" d="M21.4,21.9c0.6,0,1.2,0.1,1.8,0.3c0.5,0.2,1,0.5,1.4,0.9c0.4,0.4,0.7,0.9,0.9,1.4c0.4,1.2,0.4,2.6,0,3.8
	c-0.2,0.5-0.5,1-0.9,1.4c-0.4,0.4-0.8,0.7-1.4,0.9c-1.1,0.4-2.4,0.4-3.5,0c-0.5-0.2-1-0.5-1.4-0.9c-0.4-0.4-0.7-0.9-0.9-1.4
	c-0.4-1.2-0.4-2.6,0-3.8c0.4-1.1,1.2-1.9,2.2-2.3C20.2,22,20.8,21.9,21.4,21.9z M21.4,29.5c0.7,0,1.4-0.3,1.8-0.8
	c0.4-0.7,0.6-1.5,0.6-2.3c0.1-0.8-0.2-1.6-0.6-2.3c-0.4-0.6-1.1-0.9-1.8-0.8c-0.7-0.1-1.4,0.3-1.8,0.8c-0.4,0.7-0.6,1.5-0.6,2.3
	c-0.1,0.8,0.2,1.6,0.6,2.3C20,29.3,20.7,29.6,21.4,29.5z"/>
<path class="st0" d="M29.2,23.2c0.2-0.2,0.4-0.4,0.6-0.5c0.2-0.2,0.4-0.3,0.7-0.4c0.2-0.1,0.5-0.2,0.7-0.3c0.3-0.1,0.6-0.1,0.8-0.1
	c0.4,0,0.9,0.1,1.3,0.2c0.4,0.2,0.7,0.4,0.9,0.7c0.3,0.3,0.5,0.7,0.6,1.1c0.1,0.4,0.2,0.9,0.2,1.4v5.6h-1.8v-5.6
	c0-0.5-0.1-1-0.4-1.4c-0.3-0.4-0.8-0.5-1.2-0.5c-0.4,0-0.8,0.1-1.2,0.3c-0.4,0.2-0.7,0.5-1,0.8v6.4h-1.9V22h1.1
	c0.2,0,0.4,0.1,0.5,0.4L29.2,23.2z"/>
<path class="st0" d="M42.5,23.6c0,0.1-0.1,0.1-0.2,0.2c-0.1,0-0.1,0.1-0.2,0c-0.1,0-0.2,0-0.3-0.1l-0.4-0.2
	c-0.2-0.1-0.4-0.1-0.5-0.2c-0.2-0.1-0.5-0.1-0.7-0.1c-0.2,0-0.4,0-0.6,0.1c-0.2,0-0.3,0.1-0.5,0.2c-0.1,0.1-0.2,0.2-0.3,0.4
	c-0.1,0.1-0.1,0.3-0.1,0.4c0,0.2,0.1,0.4,0.2,0.5c0.1,0.2,0.3,0.3,0.5,0.4c0.2,0.1,0.5,0.2,0.7,0.3l0.8,0.3c0.3,0.1,0.6,0.2,0.8,0.3
	c0.3,0.1,0.5,0.3,0.7,0.5c0.2,0.2,0.4,0.4,0.5,0.6c0.1,0.3,0.2,0.6,0.2,0.9c0,0.4-0.1,0.8-0.2,1.1c-0.1,0.4-0.4,0.7-0.7,0.9
	c-0.3,0.3-0.7,0.5-1.1,0.6c-0.5,0.2-1,0.2-1.5,0.2c-0.3,0-0.6,0-0.9-0.1c-0.3-0.1-0.5-0.1-0.8-0.2c-0.2-0.1-0.5-0.2-0.7-0.3
	c-0.2-0.1-0.4-0.3-0.6-0.4l0.4-0.7c0.1-0.1,0.1-0.1,0.2-0.2c0.1-0.1,0.2-0.1,0.3-0.1c0.1,0,0.3,0,0.4,0.1c0.1,0.1,0.3,0.2,0.4,0.3
	c0.2,0.1,0.4,0.2,0.6,0.2c0.3,0.1,0.6,0.1,0.8,0.1c0.2,0,0.5,0,0.7-0.1c0.2-0.1,0.4-0.2,0.5-0.3c0.1-0.1,0.2-0.2,0.3-0.4
	c0.1-0.1,0.1-0.3,0.1-0.5c0-0.2-0.1-0.4-0.2-0.5c-0.1-0.2-0.3-0.3-0.5-0.4c-0.2-0.1-0.5-0.2-0.7-0.3L39,27c-0.3-0.1-0.5-0.2-0.8-0.3
	c-0.3-0.1-0.5-0.3-0.7-0.5c-0.2-0.2-0.4-0.4-0.5-0.7c-0.1-0.3-0.2-0.7-0.2-1c0-0.3,0.1-0.7,0.2-1c0.1-0.3,0.4-0.6,0.6-0.8
	c0.3-0.3,0.6-0.4,1-0.6c0.4-0.1,0.9-0.2,1.4-0.2c0.6,0,1.1,0.1,1.6,0.3c0.5,0.2,0.9,0.5,1.2,0.8L42.5,23.6z"/>
<path class="st0" d="M52.2,22v8.8h-1.1c-0.2,0-0.4-0.1-0.5-0.4l-0.1-0.8c-0.2,0.2-0.4,0.4-0.6,0.5c-0.2,0.2-0.4,0.3-0.7,0.4
	c-0.2,0.1-0.5,0.2-0.7,0.3c-0.3,0.1-0.6,0.1-0.8,0.1c-0.4,0-0.9-0.1-1.3-0.2c-0.4-0.2-0.7-0.4-0.9-0.7c-0.3-0.3-0.4-0.7-0.6-1.1
	c-0.1-0.4-0.2-0.9-0.2-1.4V22h1.9v5.6c0,0.5,0.1,1,0.5,1.4c0.3,0.3,0.8,0.5,1.2,0.5c0.4,0,0.8-0.1,1.2-0.3c0.4-0.2,0.7-0.5,1-0.8V22
	H52.2z"/>
<path class="st0" d="M56.4,18v12.9h-1.9V18H56.4z"/>
<path class="st0" d="M61.5,31c-0.6,0-1.2-0.2-1.7-0.6c-0.4-0.5-0.6-1.1-0.6-1.8v-5.1h-1c-0.1,0-0.2,0-0.3-0.1
	c-0.1-0.1-0.1-0.2-0.1-0.3v-0.8l1.4-0.2l0.4-2.5c0-0.1,0.1-0.2,0.2-0.2c0.1-0.1,0.2-0.1,0.3-0.1h1v2.9h2.5v1.3h-2.5v5
	c0,0.3,0.1,0.5,0.2,0.7c0.2,0.2,0.4,0.3,0.6,0.2c0.1,0,0.3,0,0.4-0.1c0.1,0,0.2-0.1,0.3-0.1l0.2-0.1c0,0,0.1-0.1,0.2-0.1
	c0.1,0,0.2,0.1,0.2,0.2l0.6,0.9c-0.3,0.3-0.6,0.5-1,0.6C62.4,30.9,61.9,31,61.5,31z"/>
</svg>
