<svg id="Calque_1" data-name="Calque 1" xmlns="http://www.w3.org/2000/svg" viewBox="0 0 60 60"><title>Plan de travail 1</title><path d="M30,0A30,30,0,1,0,60,30,30,30,0,0,0,30,0Zm0,56.37A26.37,26.37,0,1,1,56.37,30,26.4,26.4,0,0,1,30,56.37Zm-.3-42.21C21.65,15.21,19.52,21,19.52,24h3.63c0-.54.3-5.33,7-6.2,4.38-.57,6.61,1.44,7.24,3.51A4.34,4.34,0,0,1,35,26.52c-6.92,3.43-6.92,9.29-6.92,12.8h3.63c0-4,.36-7.3,4.9-9.55a8,8,0,0,0,4.23-9.56C39.87,16.88,36.33,13.3,29.7,14.16ZM28.13,46.58h3.62V42.52H28.13Z"/></svg>