<svg id="Calque_1" data-name="Calque 1" xmlns="http://www.w3.org/2000/svg" viewBox="0 0 60 60"><title>Plan de travail 1</title><path d="M27.8,16.52a5.2,5.2,0,0,0,5.32-5.18A5.28,5.28,0,0,0,22.57,11,5.23,5.23,0,0,0,27.8,16.52Z"/><path d="M40.36,33.18,36.6,22a4.39,4.39,0,0,0-2.39-2.64,15.9,15.9,0,0,0-12.64,0A4.44,4.44,0,0,0,19.07,22l-.17.51a3.4,3.4,0,0,0-2.06,3.13,3.43,3.43,0,0,0,.44,1.69l-2,5.81a1.92,1.92,0,0,0,1.2,2.42,2.22,2.22,0,0,0,.5.1,1.93,1.93,0,0,0,1.92-1.3l1.79-5.34a4.54,4.54,0,0,0,.53-.12V57.39a2.5,2.5,0,0,0,1,2l.06.05A3,3,0,0,0,27,57.12l.4-16a.44.44,0,0,1,.88,0l.12,5A3.43,3.43,0,0,0,28,47.73a3.37,3.37,0,0,0,.5,1.77l.19,7.62a3,3,0,0,0,4.71,2.3l.06-.05a2.5,2.5,0,0,0,1-2V49.32a3.46,3.46,0,0,0,0-3.19V27.49l2.32,6.91a1.93,1.93,0,0,0,1.92,1.3,2.22,2.22,0,0,0,.5-.1A1.92,1.92,0,0,0,40.36,33.18Zm-19.1-5.64h0a2.11,2.11,0,1,1,1.12-1.87A2.12,2.12,0,0,1,21.24,27.55Zm10-6.23a2.12,2.12,0,1,1-2.12,2.11A2.11,2.11,0,0,1,31.25,21.31Zm.15,28.53a2.12,2.12,0,1,1,2.12-2.11A2.11,2.11,0,0,1,31.4,49.84Z"/><path d="M47.5,40.51l-1,.87-2-2.39a23,23,0,1,0-25.29,5.2V40.3a19,19,0,0,1-6-4.72,19.43,19.43,0,1,1,23.36,4.86V44.3a23.26,23.26,0,0,0,4.64-2.52l2,2.38-1,.88,7.35,8.63,5.64-4.16Z"/></svg>